# AST/ASF file generated using VICON BodyLanguage
# -----------------------------------------------
:version 1.10
:name VICON
:units
  mass 1.0
  length 0.45
  angle deg
:documentation
   .ast/.asf automatically generated from VICON data using
   VICON BodyBuilder and BodyLanguage model FoxedUp or BRILLIANT.MOD
:root
   order TX TY TZ RX RY RZ
   axis XYZ
   position 0 0 0  
   orientation 0 0 0 
:bonedata
  begin
     id 1 
     name lhipjoint
     direction 0.561001 -0.76473 0.316963 
     length 2.4722 
     axis 0 0 0  XYZ
  end
  begin
     id 2 
     name lfemur
     direction 0.34202 -0.939693 0  
     length 7.59403  
     axis 0 0 20  XYZ
    dof rx ry rz
    limits (-160.0 20.0)
           (-70.0 70.0)
           (-60.0 70.0)
  end
  begin
     id 3 
     name ltibia
     direction 0.34202 -0.939693 0   
     length 7.89655   
     axis 0 0 20   XYZ
    dof rx
    limits (-10.0 170.0)
  end
  begin
     id 4 
     name lfoot
     direction 0.061296 -0.168409 0.98381   
     length 2.73287   
     axis -90 7.62852e-016 20   XYZ
    dof rx rz
    limits (-45.0 90.0)
           (-70.0 20.0)
  end
  begin
     id 5 
     name ltoes
     direction 1.53547e-011 -4.21984e-011 1   
     length 1.37057   
     axis -90 7.62852e-016 20   XYZ
    dof rx
    limits (-90.0 20.0)
  end
  begin
     id 6 
     name rhipjoint
     direction -0.559611 -0.765599 0.317323   
     length 2.46939  
     axis 0 0 0  XYZ 
  end
  begin
     id 7 
     name rfemur
     direction -0.34202 -0.939693 0   
     length 7.53712   
     axis 0 0 -20   XYZ
    dof rx ry rz
    limits (-160.0 20.0)
           (-70.0 70.0)
           (-70.0 60.0)
  end
  begin
     id 8 
     name rtibia
     direction -0.34202 -0.939693 0   
     length 8.12549   
     axis 0 0 -20   XYZ
    dof rx
    limits (-10.0 170.0)
 end
 begin
     id 9 
     name rfoot
     direction -0.066984 -0.184037 0.980634   
     length 2.67541  
     axis -90 -7.62852e-016 -20   XYZ
    dof rx rz
    limits (-45.0 90.0)
           (-20.0 70.0)
  end
  begin
     id 10 
     name rtoes
     direction -1.53549e-011 -4.21786e-011 1   
     length 1.34085   
     axis -90 -7.62852e-016 -20   XYZ
    dof rx
    limits (-90.0 20.0)
  end
  begin
     id 11 
     name lowerback
     direction -0.0522728 0.992594 -0.109658   
     length 2.05633   
     axis 0 0 0   XYZ
    dof rx ry rz
    limits (-20.0 45.0)
           (-30.0 30.0)
           (-30.0 30.0)
  end
  begin
     id 12 
     name upperback
     direction 0.00589338 0.999977 0.00335704   
     length 2.05845   
     axis 0 0 0   XYZ
    dof rx ry rz
    limits (-20.0 45.0)
           (-30.0 30.0)
           (-30.0 30.0)
  end
  begin
     id 13 
     name thorax
     direction 0.0292928 0.998059 0.0549487   
     length 2.09281   
     axis 0 0 0   XYZ
    dof rx ry rz
    limits (-20.0 45.0)
           (-30.0 30.0)
           (-30.0 30.0)
  end
  begin
     id 14 
     name lowerneck
     direction 0.0356368 0.980775 0.191858   
     length 1.84767   
     axis 0 0 0   XYZ
    dof rx ry rz
    limits (-20.0 45.0)
           (-30.0 30.0)
           (-30.0 30.0)
  end
  begin
     id 15 
     name upperneck
     direction -0.0227605 0.98931 -0.14404   
     length 1.89582   
     axis 0 0 0   XYZ
    dof rx ry rz
    limits (-20.0 45.0)
           (-30.0 30.0)
           (-30.0 30.0)
  end
  begin
     id 16
     name head
     direction -0.00932985 0.997511 -0.0698904  
     length 1.90213  
     axis 0 0 0   XYZ
    dof rx ry rz
    limits (-20.0 45.0)
           (-30.0 30.0)
           (-30.0 30.0)
  end
  begin
     id 17 
     name lclavicle
     direction 0.873442 0.479511 0.0846686  
     length 3.41193  
     axis 0 0 0   XYZ
    dof ry rz
    limits (-20.0 10.0)
           (0.0 20.0)
  end
  begin
     id 18 
     name lhumerus
     direction 1 -4.4897e-011 -5.62117e-018   
     length 5.59864   
     axis 180 -30 -90   XYZ
    dof rx ry rz
    limits (-60.0 90.0)
           (-90.0 90.0)
           (-90.0 90.0)
  end
  begin
     id 19
     name lradius
     direction 1 -4.48966e-011 -6.26295e-027   
     length 3.59542   
     axis 180 -30 -90   XYZ
    dof rx
    limits (-10.0 170.0)
  end
  begin
     id 20
     name lwrist
     direction 1 -4.48947e-011 -1.74096e-026   
     length 1.79771   
     axis 1.04567e-014 90 90   XYZ
    dof ry
    limits (-180.0 0.0)
 end
  begin
     id 21 
     name lhand
     direction 1 -4.49085e-011 -3.48469e-026   
     length 0.572014   
     axis 2.22196e-014 90 90   XYZ
    dof rx rz
    limits (-90.0 90.0)
           (-45.0 45.0)
  end
  begin
     id 22 
     name lfingers
     direction 1 -4.48884e-011 -6.96135e-026   
     length 0.461173   
     axis 4.44383e-014 90 90   XYZ
    dof rx
    limits (0.0 90.0)
  end
  begin
     id 23
     name lthumb
     direction 0.707107 -6.34976e-011 0.707107   
     length 0.662154   
     axis -90 45 -5.4397e-014   XYZ
    dof rx rz
    limits (-45.0 45.0)
           (-45.0 45.0)
  end
  begin
     id 24 
     name rclavicle
     direction -0.890242 0.443271 0.104786   
     length 3.46753  
     axis 0 0 0   XYZ 
    dof ry rz
    limits (-10.0 20.0)
           (-20.0 0.0)
  end
  begin
     id 25 
     name rhumerus
     direction -1 -4.48963e-011 -5.41723e-018  
     length 5.8094   
     axis 180 30 90   XYZ
    dof rx ry rz
    limits (-90.0 60.0)
           (-90.0 90.0)
           (-90.0 90.0)
  end
  begin
     id 26 
     name rradius
     direction -1 -4.48958e-011 -6.51059e-027   
     length 3.66953   
     axis 180 30 90   XYZ
    dof rx
    limits (-10.0 170.0)
  end
  begin
     id 27 
     name rwrist
     direction -1 -4.48975e-011 -1.74124e-026   
     length 1.83476   
     axis 1.04567e-014 -90 -90   XYZ
    dof ry
    limits (-180.0 0.0)
  end
  begin
     id 28
     name rhand
     direction -1 -4.49013e-011 -3.48326e-026   
     length 0.57843   
     axis 2.22196e-014 -90 -90   XYZ
    dof rx rz
    limits (-90.0 90.0)
           (-45.0 45.0)
  end
  begin
     id 29
     name rfingers
     direction -1 -4.49023e-011 -6.9669e-026   
     length 0.466345   
     axis 4.44383e-014 -90 -90   XYZ
    dof rx
    limits (0.0 90.0)
  end
  begin
     id 30
     name rthumb
     direction -0.707107 -6.34926e-011 0.707107   
     length 0.669581   
     axis -90 -45 5.4397e-014   XYZ
    dof rx rz
    limits (-45.0 45.0)
           (-45.0 45.0)
  end
:hierarchy
  begin
    root lhipjoint rhipjoint lowerback
    lhipjoint lfemur
    lfemur ltibia
    ltibia lfoot
    lfoot ltoes
    rhipjoint rfemur
    rfemur rtibia
    rtibia rfoot
    rfoot rtoes
    lowerback upperback
    upperback thorax
    thorax lowerneck lclavicle rclavicle
    lowerneck upperneck
    upperneck head
    lclavicle lhumerus
    lhumerus lradius
    lradius lwrist
    lwrist lhand lthumb
    lhand lfingers
    rclavicle rhumerus
    rhumerus rradius
    rradius rwrist
    rwrist rhand rthumb
    rhand rfingers
  end

#!OML:ASF H:\SkateBoarding\Project 1\Capture day 1\Session 1\Skater.ASF
:FULLY-SPECIFIED
:DEGREES
146
root 5.73584 19.6797 -4.26764 0.648287 71.9371 -5.03771
lowerback 12.3032 -4.9411 -3.76924
upperback 0.247671 -7.01834 0.795741
thorax -6.05379 -3.31143 4.12837
lowerneck -16.4662 -9.08552 -2.6372
upperneck 35.9027 -13.8988 4.38687
head 16.0837 -5.34519 -0.188846
rclavicle 8.43841e-014 -1.27222e-014
rhumerus -40.9949 15.1936 -82.188
rradius 58.0126
rwrist -13.8678
rhand -37.582 11.7129
rfingers 7.12502
rthumb -10.6361 -17.9979
lclavicle 8.43841e-014 -1.27222e-014
lhumerus -25.0884 -29.6634 92.8631
lradius 70.5781
lwrist 34.1898
lhand -25.6826 24.7118
lfingers 7.12502
lthumb 0.852278 54.6899
rfemur -23.936 4.85566 17.4384
rtibia 45.8186
rfoot -25.3988 13.8559
rtoes 8.14891
lfemur -16.6387 -5.30144 -11.3142
ltibia 44.7287
lfoot -39.8079 8.62746
ltoes -24.4228
147
root 5.72187 19.69 -3.96839 -0.00656535 72.3962 -5.67223
lowerback 12.336 -4.97596 -3.8936
upperback 0.187824 -7.08297 0.843092
thorax -6.10892 -3.33632 4.26351
lowerneck -16.2994 -9.11517 -2.74309
upperneck 36.0113 -13.9216 4.42008
head 16.1143 -5.36133 -0.154237
rclavicle 6.81831e-014 -1.11319e-014
rhumerus -41.9902 15.7085 -82.7826
rradius 58.3995
rwrist -13.6766
rhand -37.1225 12.2258
rfingers 7.12502
rthumb -10.1929 -17.5073
lclavicle 6.81831e-014 -1.11319e-014
lhumerus -25.3542 -29.3532 92.7971
lradius 70.6493
lwrist 34.3431
lhand -25.9141 24.858
lfingers 7.12502
lthumb 0.628727 54.8368
rfemur -23.3412 6.43267 17.2477
rtibia 45.2629
rfoot -23.8775 14.7445
rtoes 8.34398
lfemur -16.3997 -5.53307 -10.949
ltibia 44.2262
lfoot -39.5905 8.17354
ltoes -24.1921
148
root 5.70929 19.7048 -3.67231 -0.513202 72.8636 -6.22286
lowerback 12.3838 -5.00612 -3.86876
upperback 0.0478283 -7.1296 0.809668
thorax -6.2879 -3.35194 4.23736
lowerneck -16.0656 -9.19777 -2.82878
upperneck 36.1892 -14.0575 4.51101
head 16.1756 -5.41053 -0.117395
rclavicle 8.15017e-015 -5.56597e-015
rhumerus -43.1306 16.1194 -83.5232
rradius 58.7175
rwrist -13.0961
rhand -37.1114 12.3601
rfingers 7.12502
rthumb -10.1821 -17.3735
lclavicle 8.15017e-015 -5.56597e-015
lhumerus -25.7845 -29.151 92.7376
lradius 70.7787
lwrist 34.5374
lhand -25.9586 24.8107
lfingers 7.12502
lthumb 0.585725 54.7896
rfemur -22.8655 7.67777 17.0775
rtibia 44.6951
rfoot -22.952 15.2262
rtoes 8.79777
lfemur -16.2106 -5.83 -10.6285
ltibia 43.6685
lfoot -39.4481 7.77709
ltoes -23.9499
149
root 5.69735 19.7197 -3.37882 -0.990914 73.3285 -6.80062
lowerback 12.3413 -5.0648 -3.87931
upperback -0.0486274 -7.21086 0.825938
thorax -6.35608 -3.38794 4.27483
lowerneck -15.9326 -9.25151 -2.93583
upperneck 36.3385 -14.1346 4.57793
head 16.2432 -5.44092 -0.0810892
rclavicle 3.30976e-014 -2.62396e-014
rhumerus -44.0676 16.577 -84.1821
rradius 58.9053
rwrist -12.6181
rhand -36.6478 12.8748
rfingers 7.12502
rthumb -9.73482 -16.8802
lclavicle 3.30976e-014 -2.62396e-014
lhumerus -26.0359 -28.8102 92.6657
lradius 70.8306
lwrist 34.6152
lhand -26.174 24.9564
lfingers 7.12502
lthumb 0.377671 54.9358
rfemur -22.485 8.92851 17.0574
rtibia 44.172
rfoot -22.9062 15.4156
rtoes 9.16589
lfemur -16.1092 -6.11633 -10.3166
ltibia 43.1441
lfoot -39.2825 7.45896
ltoes -23.7161
150
root 5.68663 19.7376 -3.08602 -1.13483 73.8339 -7.05906
lowerback 12.2186 -5.13023 -3.88977
upperback -0.110359 -7.30169 0.767182
thorax -6.35144 -3.433 4.22367
lowerneck -15.8605 -9.29879 -3.01984
upperneck 36.4999 -14.231 4.6949
head 16.3374 -5.46604 -0.0344247
rclavicle -3.33958e-014 2.38542e-015
rhumerus -44.9592 16.9117 -84.927
rradius 59.0366
rwrist -12.0246
rhand -36.4528 13.3154
rfingers 7.12502
rthumb -9.54669 -16.4483
lclavicle -3.33958e-014 2.38542e-015
lhumerus -26.2471 -28.5349 92.4686
lradius 70.9257
lwrist 34.693
lhand -26.1261 24.9627
lfingers 7.12502
lthumb 0.423964 54.9421
rfemur -22.2135 9.52758 17.0734
rtibia 43.7242
rfoot -23.2718 15.2034
rtoes 8.74301
lfemur -16.0588 -6.49448 -10.1203
ltibia 42.6232
lfoot -39.0942 7.2684
ltoes -23.4054
151
root 5.67665 19.7585 -2.79387 -1.417 74.3785 -7.46985
lowerback 12.1341 -5.1621 -3.94276
upperback -0.175337 -7.34947 0.796883
thorax -6.35848 -3.45387 4.28603
lowerneck -15.8018 -9.39982 -3.14754
upperneck 36.6229 -14.3764 4.7724
head 16.4181 -5.52442 -0.00750353
rclavicle 1.03368e-014 -8.74653e-015
rhumerus -45.8415 17.2148 -85.5107
rradius 59.1302
rwrist -11.4623
rhand -35.9925 13.6532
rfingers 7.12502
rthumb -9.10253 -16.1304
lclavicle 1.03368e-014 -8.74653e-015
lhumerus -26.4429 -28.3147 92.4051
lradius 71.0198
lwrist 34.7067
lhand -26.1958 25.0337
lfingers 7.12502
lthumb 0.356659 55.0131
rfemur -22.0167 10.006 17.2906
rtibia 43.3678
rfoot -24.6001 14.4042
rtoes 8.01857
lfemur -16.0659 -6.9088 -9.88548
ltibia 42.093
lfoot -38.8071 7.15308
ltoes -23.1367
